<svg width="36" height="36" viewBox="0 0 36 36" fill="none" xmlns="http://www.w3.org/2000/svg">
<circle cx="18" cy="18" r="18" fill="#EFC6C8"/>
<path d="M9 13L18.0307 18.0487L26.5 13.5M18.0307 27V18.0388" stroke="#ED2028" stroke-width="1.5" stroke-linecap="round" stroke-linejoin="round"/>
<path d="M15.4498 8.47994L10.1737 11.4496C8.97816 12.1195 8 13.7993 8 15.1791V20.8284C8 22.2082 8.97816 23.888 10.1737 24.5579L15.4498 27.5276C16.5762 28.1575 18.4238 28.1575 19.5502 27.5276L24.8263 24.5579C26.0218 23.888 27 22.2082 27 20.8284V15.1791C27 13.7993 26.0218 12.1195 24.8263 11.4496L19.5502 8.47994C18.4139 7.84002 16.5762 7.84002 15.4498 8.47994V8.47994Z" stroke="#ED2028" stroke-width="1.5" stroke-linecap="round" stroke-linejoin="round"/>
<path d="M23 19V15.3961L14 10" stroke="#ED2028" stroke-width="1.5" stroke-linecap="round" stroke-linejoin="round"/>
</svg>
