<svg width="36" height="36" viewBox="0 0 36 36" fill="none" xmlns="http://www.w3.org/2000/svg">
<circle cx="18" cy="18" r="18" fill="#EFC6C8"/>
<path d="M18 19C18.394 19 18.7841 18.9224 19.1481 18.7716C19.512 18.6209 19.8427 18.3999 20.1213 18.1213C20.3999 17.8427 20.6209 17.512 20.7716 17.148C20.9224 16.7841 21 16.394 21 16C21 15.606 20.9224 15.2159 20.7716 14.8519C20.6209 14.488 20.3999 14.1573 20.1213 13.8787C19.8427 13.6001 19.512 13.3791 19.1481 13.2284C18.7841 13.0776 18.394 13 18 13C17.2044 13 16.4413 13.3161 15.8787 13.8787C15.3161 14.4413 15 15.2044 15 16C15 16.7956 15.3161 17.5587 15.8787 18.1213C16.4413 18.6839 17.2044 19 18 19V19Z" stroke="#ED2028" stroke-width="2"/>
<path d="M9.2393 14.4916C11.1813 5.82948 23.8286 5.83948 25.7607 14.5016C26.8944 19.5828 23.7793 23.8838 21.0488 26.5445C20.0946 27.4782 18.8207 28 17.4951 28C16.1695 28 14.8955 27.4782 13.9414 26.5445C11.2207 23.8838 8.10567 19.5728 9.2393 14.4916V14.4916Z" stroke="#ED2028" stroke-width="2"/>
</svg>
