<svg width="36" height="36" viewBox="0 0 36 36" fill="none" xmlns="http://www.w3.org/2000/svg">
<circle cx="18" cy="18" r="18" fill="#EFC6C8"/>
<path d="M22.065 10.0007C24.005 10.0007 25.565 11.5707 25.565 13.5007C25.565 15.3907 24.065 16.9307 22.195 17.0007C22.1086 16.9907 22.0214 16.9907 21.935 17.0007M23.995 26.0007C24.715 25.8507 25.395 25.5607 25.955 25.1307C27.515 23.9607 27.515 22.0307 25.955 20.8607C25.405 20.4407 24.735 20.1607 24.025 20.0007M14.815 16.8707C14.715 16.8607 14.595 16.8607 14.485 16.8707C13.3372 16.8318 12.2496 16.3476 11.4526 15.5207C10.6556 14.6938 10.2117 13.5892 10.215 12.4407C10.215 9.99072 12.195 8.00072 14.655 8.00072C15.8312 7.97951 16.9677 8.42641 17.8144 9.24314C18.6612 10.0599 19.1488 11.1795 19.17 12.3557C19.1912 13.532 18.7443 14.6684 17.9276 15.5152C17.1109 16.3619 15.9912 16.8495 14.815 16.8707ZM9.815 20.5607C7.395 22.1807 7.395 24.8207 9.815 26.4307C12.565 28.2707 17.075 28.2707 19.825 26.4307C22.245 24.8107 22.245 22.1707 19.825 20.5607C17.085 18.7307 12.575 18.7307 9.815 20.5607V20.5607Z" stroke="#ED2028" stroke-width="1.5" stroke-linecap="round" stroke-linejoin="round"/>
</svg>
